HIERARCHY
ROOT Hip
{
    OFFSET 0.0 0.0 0.0
    CHANNELS 6 Xposition Yposition Zposition Zrotation Xrotation Yrotation
    JOINT RightHip
    {
        OFFSET -6.560989323148883 0.0 0.0
        CHANNELS 3 Zrotation Xrotation Yrotation
        JOINT RightKnee
        {
            OFFSET 0.0 0.0 -22.994128291664104
            CHANNELS 3 Zrotation Xrotation Yrotation
            JOINT RightAnkle
            {
                OFFSET 0.0 0.0 -28.20618287084085
                CHANNELS 3 Zrotation Xrotation Yrotation
                End Site
                {
                    OFFSET 0.0 -11.28247314833634 0.0
                }
            }
        }
    }
    JOINT LeftHip
    {
        OFFSET 6.560989323148883 0.0 0.0
        CHANNELS 3 Zrotation Xrotation Yrotation
        JOINT LeftKnee
        {
            OFFSET 0.0 0.0 -22.994128291664104
            CHANNELS 3 Zrotation Xrotation Yrotation
            JOINT LeftAnkle
            {
                OFFSET 0.0 0.0 -28.20618287084085
                CHANNELS 3 Zrotation Xrotation Yrotation
                End Site
                {
                    OFFSET 0.0 -11.28247314833634 0.0
                }
            }
        }
    }
    JOINT Spine
    {
        OFFSET 0.0 0.0 18.917622364996536
        CHANNELS 3 Zrotation Xrotation Yrotation
        JOINT Thorax
        {
            OFFSET 0.0 0.0 22.20101329536154
            CHANNELS 3 Zrotation Xrotation Yrotation
            JOINT Neck
            {
                OFFSET 0.0 0.0 2.921165374096469
                CHANNELS 3 Zrotation Xrotation Yrotation
                JOINT Head
                {
                    OFFSET 0.0 0.0 9.057748152482445
                    CHANNELS 3 Zrotation Xrotation Yrotation
                    End Site
                    {
                        OFFSET -3.6230992609929786 0.0 0.0
                    }
                }
            }
            JOINT LeftShoulder
            {
                OFFSET 10.959546843601824 0.0 0.0
                CHANNELS 3 Zrotation Xrotation Yrotation
                JOINT LeftElbow
                {
                    OFFSET 21.527652655272142 0.0 0.0
                    CHANNELS 3 Zrotation Xrotation Yrotation
                    JOINT LeftWrist
                    {
                        OFFSET 12.170341308174645 0.0 0.0
                        CHANNELS 3 Zrotation Xrotation Yrotation
                        End Site
                        {
                            OFFSET 4.868136523269859 0.0 0.0
                        }
                    }
                }
            }
            JOINT RightShoulder
            {
                OFFSET -10.959546843601824 0.0 0.0
                CHANNELS 3 Zrotation Xrotation Yrotation
                JOINT RightElbow
                {
                    OFFSET -21.527652655272142 0.0 0.0
                    CHANNELS 3 Zrotation Xrotation Yrotation
                    JOINT RightWrist
                    {
                        OFFSET -12.170341308174645 0.0 0.0
                        CHANNELS 3 Zrotation Xrotation Yrotation
                        End Site
                        {
                            OFFSET -4.868136523269859 0.0 0.0
                        }
                    }
                }
            }
            JOINT Nose
            {
                OFFSET 0.0 0.0 8.75181327248609
                CHANNELS 3 Zrotation Xrotation Yrotation
                End Site
                {
                    OFFSET -3.5007253089944363 0.0 0.0
                }
            }
        }
    }
}
MOTION
Frames: 8
Frame Time: 0.03333333333333333
16.66261400445753 41.61662622572418 8.251506613078417 -22.158804575671077 -0.21254772093317445 -0.48650286139243865 -2.1398536423647316 -9.063195629079866 7.864705757768918 5.561051532089409 18.58264239932884 -15.042995380264705 0.0 -1.7890620083232284e-15 0.0 -0.21320723101958208 -12.954842226375757 -11.16849595154781 -2.7078912999165508 22.56465769402676 17.012459786017114 0.0 0.0 0.0 -3.1925272497013183e-15 3.112673079838745 3.974562460202123e-16 -1.1418334415498972 -0.013366204692297136 0.6032771347249857 1.7484383193428998 -10.629479745451034 22.32950198091536 0.0 0.0 -2.981770013872047e-16 -91.90127539868406 -16.351664666162698 6.945871939039134 -1.74122981662478e-14 -4.530074081803424e-15 -60.83383617587469 0.0 0.0 0.0 86.42595099150162 -20.149664755642686 -6.524997620730755 -2.4267505763627345e-14 -8.28392958250979e-15 51.94562615183787 0.0 0.0 0.0 0.0 0.0 -9.93923337957349e-17
16.69062615062171 41.68658949897669 8.234999940857616 -22.134608250815056 -0.2096525352344487 -0.9887010715549319 -2.8044073793018094 -9.045601400575526 7.621757471581421 5.991746522364049 18.349104759338648 -15.067126202389868 -5.517382872562698e-33 -1.5902773407317584e-15 -3.975693351829396e-16 0.5611756855977053 -13.103959510759438 -10.78801675290882 -4.933370430110173 22.141119162222346 17.618565995077663 0.0 0.0 0.0 9.546985062747783e-15 3.1431637167525954 -6.307312890662364e-17 -1.2685282872370134 -0.017282521176042107 0.7237631564994933 1.7237785030297688 -10.162737566792767 15.370013461352244 0.0 0.0 -8.945310041616142e-16 -92.57463208397408 -10.884827202402487 6.527615695933673 -7.710010959766999e-16 -1.3908771802167154e-15 -58.001593569338276 0.0 0.0 0.0 85.84605935694395 -19.00925084716424 -6.467545347377898 2.1334493730729024e-14 -2.3694078070572667e-16 51.857501393016136 0.0 0.0 0.0 0.0 0.0 -9.93923337957349e-17
16.716333438311374 41.75079614643139 8.219851448875168 -22.39045193458416 -0.20088076309462455 -0.6156716518063573 -2.6010631363804295 -9.53695620882633 8.284843749886013 4.7974001193283105 18.96433071296741 -15.246859071014457 0.0 0.0 1.987846675914698e-16 0.7595427410471169 -12.457950171363672 -10.602592198843462 -5.4631150649464 21.751183742021606 17.923757624949694 0.0 0.0 0.0 6.1116085269852494e-18 3.127370938799595 -2.238828965329262e-16 -1.1461824749032894 -0.00959821135076336 0.4191095648245138 1.7090922629241336 -10.179399916675257 12.229108121905092 0.0 0.0 -3.975693351829396e-16 -92.05338797728628 -8.910859146254865 6.508856099688011 -1.8810630272035645e-14 -7.804693467506301e-15 -57.61241234423122 0.0 0.0 0.0 85.83278340378536 -20.34668218074626 -6.481997864066267 -1.5622411076730375e-14 2.9729571463678073e-15 52.190596060838296 -6.361109362927035e-15 1.7655625192200634e-31 -3.1805546814635176e-15 0.0 0.0 -9.93923337957349e-17
16.706724450868336 41.726796692401095 8.225513721418173 -22.507174676002684 -0.17218890865384112 -0.631627253555696 -2.4922314147902247 -9.775956852023247 8.47014028373557 4.074974848192526 19.164485272526893 -15.161117846076033 0.0 0.0 -3.975693351829396e-16 0.8788438787738717 -11.947226111214471 -10.15209346051038 -6.018163199906301 21.35155033490752 17.978039038285452 0.0 -1.4908850069360234e-15 0.0 -2.690287499273982e-18 3.097535931158053 9.950139601721373e-17 -1.0925855744649555 -0.00913319130419096 0.3727087879492309 1.7265609516466096 -10.117569579863918 6.749145527833604 -3.180554681463516e-15 1.9878466759146975e-16 5.517382872562698e-33 -91.67399865297789 -7.140337776650158 6.473720026359982 -4.854632638423343e-15 4.407406980699384e-15 -56.39865395835064 6.3611093629270335e-15 3.1805546814635168e-15 -1.7655625192200634e-31 85.93551466638887 -20.164771573877392 -6.469877269370195 -6.419836365936842e-15 -1.3335649148645447e-15 51.5423219591087 0.0 0.0 0.0 0.0 0.0 0.0
16.560637543125118 41.36192931718644 8.311598118084344 -22.591605303584803 -0.18237771405435718 -0.7475457665283226 -2.476143814592217 -9.846404373628735 8.238103636344809 4.024860210751019 19.39973154139244 -14.666493217202722 0.0 0.0 1.7890620083232284e-15 -0.51879593961557 -11.715473927072004 -9.98810821567737 -4.551742728010846 21.435834887688685 17.12218875414022 3.1805546814635168e-15 0.0 0.0 -3.187099851292597e-15 3.0045936461970815 2.078681326402119e-16 -1.558886590717135 -0.01511200989841195 0.4361016662079471 2.09435977307954 -10.866854115650069 -2.1254188778868692 0.0 0.0 0.0 -90.90825844813575 -13.58832688705003 6.973965562387526 -8.65938705836163e-15 -2.4377121297879032e-15 -58.555017327655946 0.0 0.0 0.0 87.27608831074372 -22.67103891833263 -6.87807681069166 9.20425903617037e-15 -4.355442392377138e-15 52.033490276536945 0.0 0.0 0.0 0.0 0.0 0.0
16.489721484446417 41.184809022216896 8.353386709680995 -21.991142360177715 -0.08666921596142035 -0.41405873130222237 -3.897783507309887 -10.30941685443543 8.309805887087725 4.931931518092661 19.661914104492627 -15.054471463420235 2.793175079234866e-32 -1.7890620083232284e-15 1.7890620083232284e-15 -0.43331338401840336 -10.786344200451968 -9.308399615725458 -6.231560973863709 20.14961671950479 17.409424021545785 0.0 9.939233379573489e-17 0.0 3.175533718694619e-15 2.7631968558525286 2.465311289914503e-16 -2.2119189383469404 -0.008752435715040266 0.24239359527162485 1.9939889217674605 -11.302802784839509 -7.8284161830227905 0.0 0.0 0.0 -89.19610795827104 -15.961460166668342 7.282957239949721 -1.8674234643887382e-14 -8.125639163659408e-15 -55.65019270661589 0.0 0.0 0.0 87.15495160172179 -24.35112372707317 -7.00221791380833 -2.5631754312298957e-14 -5.558442266944002e-15 52.54363633947574 0.0 0.0 0.0 0.0 -3.9756933518293955e-16 0.0
16.40706796103859 40.97837317793805 8.402091818200388 -23.063631331219426 -0.06529584217432588 0.07013458049782798 -3.061696500639359 -10.893268659130595 8.574348416712546 4.632969640998249 20.3806714447767 -15.491092115152462 -1.8621167194899106e-32 -1.7890620083232284e-15 -1.1927080055488188e-15 -0.9454340327399864 -9.959058579399265 -8.578714014091538 -4.261810186689177 19.69592939606468 16.14677938988434 6.896728590703373e-34 -1.987846675914698e-16 3.975693351829396e-16 -1.9547046029200967e-18 2.7707148047153556 8.082715519215542e-17 -1.2414377758192354 -0.011712570117004367 0.25225689318993927 2.2218334695843858 -11.308133704251846 -5.32390358589622 0.0 0.0 0.0 -87.44623061474577 -18.202291672198598 7.621067710170928 -1.2423840587552125e-14 -1.1790254425867907e-14 -49.39490046348619 0.0 0.0 0.0 88.15106751356096 -23.400348560170013 -6.941986355281868 4.257161709260653e-15 -8.539316536891013e-15 52.995867884897955 0.0 0.0 0.0 3.4483642953516864e-34 3.975693351829396e-16 -9.93923337957349e-17
16.471176571518626 41.13849115699491 8.364314640631669 -22.53861980339865 0.057894432319219334 0.5974103499130516 -3.6067081106787438 -11.203231037937593 8.731010068154134 4.7706023111109195 20.419575935614873 -15.61169075675062 -6.896728590703373e-34 -1.9878466759146977e-16 -3.9756933518293955e-16 -0.739412108283575 -8.897465180340385 -7.861106830604446 -5.884287717436494 17.80545245844015 15.882698170782852 -4.827710013492361e-33 -1.3914926731402886e-15 -3.975693351829396e-16 8.213987039220457e-19 2.523110927649422 -3.729925058577984e-17 -2.269319439671018 0.01059899725773645 -0.22233539058312615 2.1817506081714986 -11.597056437795517 -16.722101444541718 0.0 0.0 -3.975693351829396e-16 -85.50757945210663 -22.62273813632927 8.188225552499594 -5.8438621270764214e-15 2.512565972634316e-15 -46.5305318541946 0.0 0.0 0.0 88.4737070144238 -24.856276996133115 -7.056252062441832 1.2820904521271993e-14 2.7559362559171623e-15 52.33547841071515 0.0 0.0 0.0 0.0 0.0 -9.93923337957349e-17
